<svg width="34" height="34" viewBox="0 0 34 34" fill="none" xmlns="http://www.w3.org/2000/svg">
<path d="M17.6377 24.9476C17.78 25.1011 17.8907 25.2811 17.9635 25.4774C18.0362 25.6737 18.0696 25.8823 18.0617 26.0915C18.0538 26.3007 18.0048 26.5062 17.9175 26.6964C17.8301 26.8867 17.7062 27.0578 17.5527 27.2001C17.3992 27.3425 17.2192 27.4532 17.0229 27.5259C16.8267 27.5987 16.618 27.632 16.4088 27.6242C16.1997 27.6163 15.9941 27.5672 15.8039 27.4799C15.6137 27.3926 15.4425 27.2686 15.3002 27.1151L6.80019 18.0839C6.52687 17.7892 6.375 17.4021 6.375 17.0001C6.375 16.5982 6.52687 16.2111 6.80019 15.9164L15.3002 6.88514C15.5876 6.57517 15.9864 6.39207 16.4088 6.37613C16.618 6.36824 16.8267 6.40162 17.0229 6.47437C17.2192 6.54713 17.3992 6.65782 17.5527 6.80014C17.7062 6.94246 17.8301 7.11362 17.9175 7.30384C18.0048 7.49406 18.0538 7.69962 18.0617 7.90879C18.0696 8.11795 18.0362 8.32662 17.9635 8.52288C17.8907 8.71915 17.78 8.89916 17.6377 9.05264L10.1428 17.0001L17.6377 24.9476ZM26.1377 24.9476C26.28 25.1011 26.3907 25.2811 26.4635 25.4774C26.5362 25.6737 26.5696 25.8823 26.5617 26.0915C26.5538 26.3007 26.5048 26.5062 26.4175 26.6964C26.3301 26.8867 26.2062 27.0578 26.0527 27.2001C25.8992 27.3425 25.7192 27.4532 25.5229 27.5259C25.3267 27.5987 25.118 27.632 24.9088 27.6242C24.6997 27.6163 24.4941 27.5672 24.3039 27.4799C24.1137 27.3926 23.9425 27.2686 23.8002 27.1151L15.3002 18.0839C15.0269 17.7892 14.875 17.4021 14.875 17.0001C14.875 16.5982 15.0269 16.2111 15.3002 15.9164L23.8002 6.88514C24.0876 6.57517 24.4864 6.39207 24.9088 6.37613C25.118 6.36824 25.3267 6.40162 25.5229 6.47437C25.7192 6.54713 25.8992 6.65782 26.0527 6.80014C26.2062 6.94246 26.3301 7.11362 26.4175 7.30384C26.5048 7.49406 26.5538 7.69962 26.5617 7.90879C26.5696 8.11795 26.5362 8.32662 26.4635 8.52288C26.3907 8.71915 26.28 8.89916 26.1377 9.05264L18.6428 17.0001L26.1377 24.9476Z" fill="#AEAEAE"/>
</svg>
