<svg width="34" height="34" viewBox="0 0 34 34" fill="none" xmlns="http://www.w3.org/2000/svg">
<path d="M16.3623 9.05236C16.22 8.89888 16.1093 8.71886 16.0365 8.5226C15.9638 8.32634 15.9304 8.11767 15.9383 7.9085C15.9462 7.69934 15.9952 7.49378 16.0825 7.30356C16.1699 7.11333 16.2938 6.94218 16.4473 6.79986C16.6008 6.65754 16.7808 6.54684 16.9771 6.47409C17.1733 6.40134 17.382 6.36796 17.5912 6.37585C17.8003 6.38374 18.0059 6.43276 18.1961 6.52009C18.3863 6.60743 18.5575 6.73137 18.6998 6.88486L27.1998 15.9161C27.4731 16.2108 27.625 16.5979 27.625 16.9999C27.625 17.4018 27.4731 17.7889 27.1998 18.0836L18.6998 27.1149C18.4124 27.4248 18.0136 27.6079 17.5912 27.6239C17.382 27.6318 17.1733 27.5984 16.9771 27.5256C16.7808 27.4529 16.6008 27.3422 16.4473 27.1999C16.2938 27.0575 16.1699 26.8864 16.0825 26.6962C15.9952 26.5059 15.9462 26.3004 15.9383 26.0912C15.9304 25.882 15.9638 25.6734 16.0365 25.4771C16.1093 25.2809 16.22 25.1008 16.3623 24.9474L23.8572 16.9999L16.3623 9.05236ZM7.86231 9.05236C7.71999 8.89888 7.60929 8.71886 7.53654 8.5226C7.46379 8.32634 7.4304 8.11767 7.4383 7.9085C7.44619 7.69934 7.4952 7.49378 7.58254 7.30356C7.66988 7.11333 7.79383 6.94218 7.94731 6.79986C8.10079 6.65754 8.2808 6.54684 8.47706 6.47409C8.67333 6.40134 8.882 6.36796 9.09116 6.37585C9.30033 6.38374 9.50589 6.43276 9.69611 6.52009C9.88633 6.60743 10.0575 6.73137 10.1998 6.88486L18.6998 15.9161C18.9731 16.2108 19.125 16.5979 19.125 16.9999C19.125 17.4018 18.9731 17.7889 18.6998 18.0836L10.1998 27.1149C9.91238 27.4248 9.51359 27.6079 9.09116 27.6239C8.882 27.6318 8.67333 27.5984 8.47706 27.5256C8.2808 27.4529 8.10079 27.3422 7.94731 27.1999C7.79383 27.0575 7.66988 26.8864 7.58254 26.6962C7.49521 26.5059 7.44619 26.3004 7.4383 26.0912C7.4304 25.882 7.46379 25.6734 7.53654 25.4771C7.60929 25.2809 7.71999 25.1008 7.86231 24.9474L15.3572 16.9999L7.86231 9.05236Z" fill="#AEAEAE"/>
</svg>
