<svg width="48" height="48" viewBox="0 0 48 48" fill="none" xmlns="http://www.w3.org/2000/svg">
<g clip-path="url(#clip0_131_317)">
<path d="M9.41088 0.0119629C4.24047 0.0119629 0.00878906 4.24355 0.00878906 9.41406V38.5904C0.00878906 43.7608 4.24037 47.991 9.41088 47.991H38.5873C43.7577 47.991 47.9878 43.7609 47.9878 38.5904V9.41406C47.9878 4.24364 43.7577 0.0119629 38.5873 0.0119629H9.41088ZM11.7757 7.92947C14.2548 7.92947 15.7818 9.55696 15.8289 11.6963C15.8289 13.7883 14.2547 15.4616 11.7277 15.4616H11.6812C9.24927 15.4616 7.67741 13.7884 7.67741 11.6963C7.67741 9.557 9.29684 7.92947 11.7756 7.92947H11.7757ZM33.1395 17.9283C37.9073 17.9283 41.4814 21.0446 41.4814 27.7413V40.2428H34.2357V28.5795C34.2357 25.6486 33.187 23.649 30.5648 23.649C28.563 23.649 27.3698 24.9967 26.846 26.2987C26.6546 26.7645 26.6076 27.415 26.6076 28.0666V40.2428H19.3618C19.3618 40.2428 19.4569 20.4854 19.3618 18.4396H26.609V21.5272C27.5719 20.0416 29.2943 17.9283 33.1395 17.9283V17.9283ZM8.10481 18.4412H15.3505V40.2429H8.10481V18.4412Z" fill="black"/>
</g>
<defs>
<clipPath id="clip0_131_317">
<rect width="48" height="48" fill="black"/>
</clipPath>
</defs>
</svg>
