<svg width="18" height="18" viewBox="0 0 18 18" fill="none" xmlns="http://www.w3.org/2000/svg">
<path fill-rule="evenodd" clip-rule="evenodd" d="M5.59884 0.799317C6.47859 0.758817 6.75909 0.749817 9.00009 0.749817C11.2411 0.749817 11.5216 0.759567 12.4006 0.799317C13.2796 0.839067 13.8796 0.979317 14.4046 1.18257C14.9543 1.39032 15.4531 1.71507 15.8656 2.13507C16.2856 2.54682 16.6096 3.04482 16.8166 3.59532C17.0206 4.12032 17.1601 4.72032 17.2006 5.59782C17.2411 6.47907 17.2501 6.75957 17.2501 8.99982C17.2501 11.2408 17.2403 11.5213 17.2006 12.4011C17.1608 13.2786 17.0206 13.8786 16.8166 14.4036C16.6096 14.9541 16.2851 15.453 15.8656 15.8653C15.4531 16.2853 14.9543 16.6093 14.4046 16.8163C13.8796 17.0203 13.2796 17.1598 12.4021 17.2003C11.5216 17.2408 11.2411 17.2498 9.00009 17.2498C6.75909 17.2498 6.47859 17.2401 5.59884 17.2003C4.72134 17.1606 4.12134 17.0203 3.59634 16.8163C3.04578 16.6093 2.54696 16.2848 2.13459 15.8653C1.71488 15.4533 1.39008 14.9547 1.18284 14.4043C0.979592 13.8793 0.840092 13.2793 0.799592 12.4018C0.759092 11.5206 0.750092 11.2401 0.750092 8.99982C0.750092 6.75882 0.759842 6.47832 0.799592 5.59932C0.839342 4.72032 0.979592 4.12032 1.18284 3.59532C1.39038 3.04488 1.71543 2.5463 2.13534 2.13432C2.54712 1.71469 3.04545 1.3899 3.59559 1.18257C4.12059 0.979317 4.72059 0.839817 5.59809 0.799317H5.59884ZM12.3338 2.28432C11.4638 2.24457 11.2028 2.23632 9.00009 2.23632C6.79734 2.23632 6.53634 2.24457 5.66634 2.28432C4.86159 2.32107 4.42509 2.45532 4.13409 2.56857C3.74934 2.71857 3.47409 2.89632 3.18534 3.18507C2.91163 3.45136 2.70098 3.77553 2.56884 4.13382C2.45559 4.42482 2.32134 4.86132 2.28459 5.66607C2.24484 6.53607 2.23659 6.79707 2.23659 8.99982C2.23659 11.2026 2.24484 11.4636 2.28459 12.3336C2.32134 13.1383 2.45559 13.5748 2.56884 13.8658C2.70084 14.2236 2.91159 14.5483 3.18534 14.8146C3.45159 15.0883 3.77634 15.2991 4.13409 15.4311C4.42509 15.5443 4.86159 15.6786 5.66634 15.7153C6.53634 15.7551 6.79659 15.7633 9.00009 15.7633C11.2036 15.7633 11.4638 15.7551 12.3338 15.7153C13.1386 15.6786 13.5751 15.5443 13.8661 15.4311C14.2508 15.2811 14.5261 15.1033 14.8148 14.8146C15.0886 14.5483 15.2993 14.2236 15.4313 13.8658C15.5446 13.5748 15.6788 13.1383 15.7156 12.3336C15.7553 11.4636 15.7636 11.2026 15.7636 8.99982C15.7636 6.79707 15.7553 6.53607 15.7156 5.66607C15.6788 4.86132 15.5446 4.42482 15.4313 4.13382C15.2813 3.74907 15.1036 3.47382 14.8148 3.18507C14.5485 2.91137 14.2244 2.70072 13.8661 2.56857C13.5751 2.45532 13.1386 2.32107 12.3338 2.28432ZM7.94634 11.5431C8.53484 11.788 9.19013 11.8211 9.80029 11.6366C10.4105 11.4521 10.9376 11.0615 11.2918 10.5315C11.646 10.0015 11.8051 9.36497 11.7421 8.73065C11.6791 8.09632 11.3978 7.50355 10.9463 7.05357C10.6585 6.76592 10.3105 6.54568 9.92734 6.40868C9.54418 6.27168 9.13541 6.22134 8.73046 6.26128C8.32551 6.30122 7.93446 6.43045 7.58544 6.63966C7.23643 6.84888 6.93815 7.13287 6.71207 7.47121C6.48599 7.80954 6.33773 8.19378 6.27798 8.59629C6.21822 8.99879 6.24846 9.40954 6.3665 9.79895C6.48454 10.1884 6.68745 10.5468 6.96063 10.8484C7.23381 11.1499 7.57046 11.3872 7.94634 11.5431ZM6.00159 6.00132C6.39536 5.60755 6.86283 5.29519 7.37732 5.08209C7.8918 4.86898 8.44322 4.7593 9.00009 4.7593C9.55696 4.7593 10.1084 4.86898 10.6229 5.08209C11.1374 5.29519 11.6048 5.60755 11.9986 6.00132C12.3924 6.39509 12.7047 6.86256 12.9178 7.37704C13.1309 7.89152 13.2406 8.44294 13.2406 8.99982C13.2406 9.55669 13.1309 10.1081 12.9178 10.6226C12.7047 11.1371 12.3924 11.6045 11.9986 11.9983C11.2033 12.7936 10.1247 13.2403 9.00009 13.2403C7.87544 13.2403 6.79684 12.7936 6.00159 11.9983C5.20634 11.2031 4.75957 10.1245 4.75957 8.99982C4.75957 7.87516 5.20634 6.79657 6.00159 6.00132ZM14.1811 5.39082C14.2787 5.29877 14.3568 5.18808 14.4108 5.0653C14.4649 4.94252 14.4937 4.81014 14.4957 4.67601C14.4976 4.54189 14.4726 4.40873 14.4222 4.28442C14.3718 4.16012 14.2969 4.0472 14.2021 3.95235C14.1072 3.85749 13.9943 3.78263 13.87 3.73221C13.7457 3.68178 13.6125 3.6568 13.4784 3.65875C13.3443 3.66071 13.2119 3.68956 13.0891 3.74359C12.9663 3.79762 12.8556 3.87574 12.7636 3.97332C12.5846 4.16309 12.4866 4.41516 12.4904 4.67601C12.4942 4.93687 12.5995 5.18598 12.784 5.37045C12.9684 5.55492 13.2175 5.66024 13.4784 5.66404C13.7393 5.66784 13.9913 5.56983 14.1811 5.39082Z" fill="white"/>
</svg>
