<svg width="93" height="104" viewBox="0 0 93 104" fill="none" xmlns="http://www.w3.org/2000/svg">
<g clip-path="url(#clip0_219:4)">
<path d="M46.0623 103.807C44.6318 103.807 43.2967 103.426 42.057 102.758L29.373 95.2244C27.4657 94.1754 28.4194 93.7939 28.9915 93.6032C31.5663 92.7449 32.0432 92.5542 34.7133 91.028C34.9998 90.8373 35.3812 90.9326 35.667 91.1234L45.3947 96.9409C45.7762 97.1316 46.253 97.1316 46.5391 96.9409L84.5909 74.9113C84.9723 74.7205 85.163 74.3391 85.163 73.8623V29.8976C85.163 29.4208 84.9723 29.0393 84.5909 28.8486L46.5391 6.91397C46.1576 6.72324 45.6808 6.72324 45.3947 6.91397L7.34298 28.849C6.96152 29.0397 6.7708 29.5165 6.7708 29.898V73.8623C6.7708 74.2437 6.96152 74.7205 7.34298 74.9113L17.7383 80.9191C23.3651 83.78 26.8932 80.4423 26.8932 77.1046V33.7121C26.8932 33.14 27.3704 32.5678 28.0379 32.5678H32.9018C33.474 32.5678 34.0461 33.0446 34.0461 33.7121V77.1042C34.0461 84.6383 29.9452 89.025 22.7926 89.025C20.5992 89.025 18.8827 89.025 14.0191 86.6409L4.00526 80.9191C1.52581 79.4883 0 76.8182 0 73.9573V29.9933C0 27.1324 1.52581 24.4623 4.00526 23.0314L42.057 1.0018C44.4411 -0.333283 47.6835 -0.333283 50.0675 1.0018L88.1193 23.0314C90.5988 24.4619 92.1246 27.1321 92.1246 29.9933V73.9576C92.1246 76.8185 90.5988 79.4887 88.1193 80.9191L50.0675 102.95C48.8278 103.522 47.3974 103.808 46.0623 103.808V103.807ZM57.7923 73.5758C41.103 73.5758 37.67 65.9467 37.67 59.4617C37.67 58.8895 38.1468 58.3173 38.8143 58.3173H43.7732C44.3454 58.3173 44.8226 58.6988 44.8226 59.2709C45.5855 64.3252 47.7788 66.805 57.8877 66.805C65.8986 66.805 69.332 64.9931 69.332 60.7018C69.332 58.222 68.3784 56.41 55.8851 55.17C45.4901 54.121 39.005 51.8322 39.005 43.5356C39.005 35.8105 45.4897 31.2331 56.3619 31.2331C68.5687 31.2331 74.577 35.429 75.3399 44.5843C75.3399 44.8704 75.2445 45.1565 75.0538 45.4425C74.8631 45.6333 74.577 45.824 74.2909 45.824H69.332C68.8548 45.824 68.3784 45.4425 68.2827 44.9657C67.1383 39.7208 64.182 38.0042 56.3619 38.0042C47.5885 38.0042 46.5391 41.0558 46.5391 43.3446C46.5391 46.1105 47.7788 46.9684 59.6042 48.4942C71.3346 50.02 76.8657 52.2137 76.8657 60.4153C76.7704 68.8076 69.9042 73.5758 57.7923 73.5758V73.5758Z" fill="#539E43"/>
</g>
<defs>
<clipPath id="clip0_219:4">
<rect width="92.1246" height="104" fill="white"/>
</clipPath>
</defs>
</svg>
