<svg width="117" height="104" viewBox="0 0 117 104" fill="none" xmlns="http://www.w3.org/2000/svg">
<path d="M96.1081 33.7086C94.8641 33.2818 93.6095 32.8864 92.3456 32.5228C92.558 31.6553 92.7534 30.7982 92.9269 29.9562C95.7752 16.1297 93.9132 4.99076 87.5531 1.32329C81.4551 -2.19259 71.4823 1.47351 61.4105 10.239C60.4179 11.1044 59.4473 11.9948 58.4996 12.9092C57.8652 12.3012 57.2196 11.7049 56.5631 11.1207C46.0073 1.74839 35.4268 -2.20172 29.0736 1.47625C22.981 5.00309 21.177 15.4745 23.7413 28.5782C23.9964 29.876 24.2845 31.1671 24.6052 32.4502C23.1075 32.8758 21.6624 33.3287 20.2793 33.8109C7.90342 38.1258 0 44.8877 0 51.9017C0 59.1458 8.48468 66.4118 21.3747 70.8176C22.4197 71.1733 23.4734 71.5029 24.5349 71.8061C24.1902 73.1881 23.8841 74.5795 23.6171 75.9786C21.1724 88.8549 23.0815 99.0788 29.1576 102.583C35.4332 106.202 45.9662 102.483 56.2221 93.5173C57.0537 92.7885 57.867 92.0389 58.6613 91.2695C59.6875 92.2596 60.7412 93.221 61.821 94.1525C71.7558 102.701 81.5674 106.153 87.6376 102.639C93.9072 99.0094 95.9451 88.0262 93.2995 74.6636C93.0911 73.6167 92.8574 72.575 92.5986 71.5395C93.3383 71.3203 94.0643 71.0947 94.772 70.86C108.173 66.4204 116.891 59.2426 116.891 51.9017C116.891 44.8622 108.733 38.0546 96.1081 33.7086V33.7086ZM93.2018 66.1204C92.5625 66.3318 91.9068 66.5359 91.2384 66.7346C89.7589 62.0512 87.7627 57.0714 85.3194 51.9259C87.6508 46.9032 89.5704 41.9869 91.0082 37.3341C92.2041 37.6802 93.3643 38.045 94.483 38.4299C105.3 42.154 111.898 47.6593 111.898 51.9017C111.898 56.4203 104.772 62.2863 93.2018 66.1204V66.1204ZM88.401 75.6334C89.5708 81.5419 89.7375 86.8842 88.9626 91.0608C88.2668 94.8136 86.8668 97.3154 85.1353 98.3176C81.4519 100.45 73.574 97.6784 65.078 90.3672C64.0736 89.5012 63.0935 88.6074 62.1388 87.6869C65.4327 84.0847 68.7244 79.8972 71.9371 75.2462C77.5881 74.7448 82.9267 73.9248 87.7681 72.8056C88.0065 73.7677 88.2184 74.711 88.401 75.6334V75.6334ZM39.8509 97.9492C36.2519 99.2199 33.3853 99.2564 31.6525 98.2574C27.9654 96.131 26.4325 87.9216 28.5233 76.9101C28.7719 75.6089 29.0565 74.3148 29.3767 73.0294C34.1647 74.0887 39.4646 74.8503 45.1288 75.3097C48.3634 79.8607 51.75 84.0436 55.1632 87.7065C54.4378 88.4084 53.6953 89.0923 52.9363 89.7576C48.4008 93.7219 43.8562 96.5346 39.8509 97.9492V97.9492ZM22.9902 66.0926C17.2903 64.1442 12.5832 61.6124 9.3568 58.8494C6.45734 56.3668 4.99391 53.9016 4.99391 51.9017C4.99391 47.6452 11.3394 42.2161 21.9231 38.5263C23.2075 38.0788 24.5518 37.6564 25.9467 37.2601C27.4097 42.018 29.3283 46.9927 31.6438 52.0231C29.2982 57.128 27.3521 62.1822 25.875 66.9962C24.9062 66.7187 23.9442 66.4174 22.9902 66.0926V66.0926ZM28.6421 27.6188C26.4453 16.3922 27.9042 7.92355 31.5758 5.79804C35.4862 3.53418 44.1334 6.76194 53.2477 14.8548C53.8421 15.3838 54.4268 15.9234 55.0015 16.4735C51.6053 20.1204 48.2497 24.2724 45.0439 28.7964C39.5463 29.306 34.2839 30.1243 29.4457 31.2206C29.1476 30.0271 28.8796 28.8263 28.6421 27.6193V27.6188ZM79.0638 40.0696C77.9211 38.0957 76.7359 36.1466 75.5091 34.2237C79.2387 34.6954 82.8121 35.3214 86.1677 36.0866C85.1605 39.3158 83.9048 42.6915 82.4268 46.1525C81.3464 44.1027 80.2252 42.0747 79.0638 40.0696V40.0696ZM58.5019 20.0424C60.805 22.5377 63.1118 25.3235 65.3807 28.3462C60.7781 28.1289 56.1678 28.1279 51.5651 28.3435C53.8363 25.3486 56.1627 22.5665 58.5019 20.0424ZM37.808 40.1039C36.6612 42.0928 35.5609 44.1082 34.5081 46.1484C33.0543 42.6997 31.81 39.3085 30.7941 36.0337C34.1291 35.2876 37.6856 34.6775 41.3915 34.2145C40.151 36.1492 38.9562 38.1127 37.808 40.1034V40.1039ZM41.4978 69.9441C37.6692 69.5167 34.0593 68.9382 30.7251 68.2122C31.757 64.8789 33.0287 61.4156 34.514 57.8928C35.571 59.9346 36.6758 61.9512 37.8276 63.9411C39.0121 65.9867 40.2385 67.9902 41.4978 69.9441ZM58.6398 84.1126C56.2727 81.5592 53.9121 78.7342 51.6067 75.696C53.845 75.7836 56.1266 75.8284 58.4457 75.8284C60.8283 75.8284 63.1835 75.7749 65.5017 75.6717C63.2255 78.7648 60.9274 81.5939 58.6398 84.1126ZM82.4738 57.7129C84.0363 61.2745 85.3531 64.7196 86.3988 67.9957C83.0098 68.7692 79.3506 69.392 75.495 69.8546C76.7305 67.896 77.9269 65.913 79.0835 63.9068C80.2594 61.8676 81.3898 59.8024 82.4738 57.7129V57.7129ZM74.758 61.4119C72.9874 64.4878 71.1172 67.5053 69.1504 70.4596C65.5878 70.7119 62.0173 70.8372 58.4457 70.8354C54.8079 70.8354 51.2697 70.7221 47.8625 70.5011C45.8444 67.5536 43.9385 64.5309 42.149 61.4393H42.1494C40.3683 58.3641 38.7046 55.2223 37.1619 52.0209C38.7006 48.8186 40.3593 45.6754 42.1344 42.5979L42.1339 42.5983C43.9083 39.52 45.7989 36.5101 47.8018 33.5753C51.2779 33.3123 54.8426 33.1753 58.4453 33.1753H58.4457C62.0648 33.1753 65.6341 33.3137 69.1093 33.5785C71.092 36.5089 72.9705 39.5084 74.7416 42.5714C76.5226 45.6421 78.2031 48.77 79.7807 51.9501C78.2193 55.1626 76.5441 58.3186 74.758 61.4119V61.4119ZM85.0591 5.64919C88.9731 7.90665 90.4955 17.01 88.0362 28.948C87.8791 29.7097 87.7028 30.4854 87.5111 31.2722C82.661 30.1526 77.3949 29.3202 71.8814 28.8028C68.6696 24.229 65.3414 20.0707 62.0004 16.4708C62.876 15.6267 63.7725 14.8046 64.6889 14.0051C73.3188 6.49528 81.3843 3.53007 85.0591 5.64919V5.64919ZM58.4457 41.4636C64.2104 41.4636 68.8838 46.137 68.8838 51.9017C68.8838 57.6663 64.2104 62.3397 58.4457 62.3397C52.6811 62.3397 48.0077 57.6663 48.0077 51.9017C48.0077 46.137 52.6811 41.4636 58.4457 41.4636V41.4636Z" fill="#00D8FF"/>
</svg>
