<svg width="39" height="26" viewBox="0 0 39 26" fill="none" xmlns="http://www.w3.org/2000/svg">
<g clip-path="url(#clip0)">
<path d="M4.67734 21.0437C4.76704 21.0036 4.80769 20.8971 4.7679 20.8059C4.68852 20.624 4.68379 20.4206 4.75435 20.2341C4.90083 19.8499 5.32847 19.6579 5.70685 19.8067C5.89033 19.8785 6.0351 20.0186 6.11448 20.2012C6.19428 20.3838 6.19923 20.5865 6.12803 20.7734C6.0635 20.9432 5.94024 21.083 5.7802 21.1661C5.69287 21.2117 5.65888 21.3206 5.70405 21.4092C5.73524 21.4711 5.79741 21.5069 5.86172 21.5069C5.88926 21.5069 5.91722 21.5006 5.94325 21.4866C6.18073 21.3627 6.364 21.1552 6.45973 20.9026C6.56513 20.6268 6.55803 20.3257 6.43972 20.0552C6.32141 19.7847 6.10673 19.577 5.83505 19.4705C5.27362 19.2504 4.63991 19.5346 4.42265 20.1045C4.3181 20.3814 4.32542 20.682 4.44308 20.9521C4.48245 21.0429 4.58742 21.0837 4.67734 21.0437Z" fill="white"/>
<path d="M6.37777 5.45071H4.50417C4.40006 5.45071 4.31531 5.36497 4.31531 5.25916C4.31531 5.15312 4.40006 5.06738 4.50417 5.06738H6.37777C6.4821 5.06738 6.56685 5.15312 6.56685 5.25916C6.56685 5.36497 6.4821 5.45071 6.37777 5.45071Z" fill="white"/>
<path d="M3.84293 5.45071H3.85906C3.75474 5.45071 3.66998 5.36497 3.66998 5.25916C3.66998 5.15312 3.75474 5.06738 3.85906 5.06738H3.84293C3.94726 5.06738 4.03201 5.15312 4.03201 5.25916C4.0318 5.36497 3.94726 5.45071 3.84293 5.45071Z" fill="white"/>
<path d="M9.82488 6.72134H1.13363C1.02952 6.72134 0.944763 6.6356 0.944763 6.52957C0.944763 6.42375 1.02952 6.33801 1.13363 6.33801H9.8251C9.92964 6.33801 10.0144 6.42354 10.0144 6.52957C10.0142 6.6356 9.92964 6.72134 9.82488 6.72134Z" fill="white"/>
<path d="M9.82488 18.8585H1.13363C1.02952 18.8585 0.944763 18.7728 0.944763 18.6665C0.944763 18.5609 1.02952 18.475 1.13363 18.475H9.8251C9.92964 18.475 10.0144 18.5607 10.0144 18.6665C10.0142 18.7726 9.92964 18.8585 9.82488 18.8585Z" fill="white"/>
<path d="M9.3127 22.8188H1.64236C0.736747 22.8188 0 22.0716 0 21.1531V4.99909C0 4.08059 0.736747 3.33334 1.64236 3.33334H9.3127C10.2183 3.33334 10.9551 4.08059 10.9551 4.99909V21.1531C10.9551 22.0716 10.2183 22.8188 9.3127 22.8188ZM1.64236 3.90801C1.0493 3.90801 0.566597 4.39759 0.566597 4.99909V21.1531C0.566597 21.7546 1.0493 22.2441 1.64236 22.2441H9.3127C9.90576 22.2441 10.3882 21.7546 10.3882 21.1531V4.99909C10.3882 4.39759 9.90576 3.90801 9.3127 3.90801H1.64236Z" fill="white"/>
<path d="M13.4747 0H13.1461V26H13.4747V0Z" fill="white"/>
<path d="M23.0647 10.1249C23.0647 10.4868 23.0106 10.8295 22.9025 11.153C22.7944 11.4765 22.6511 11.767 22.4727 12.0247C22.2943 12.2824 22.0835 12.5072 21.8402 12.6991C21.597 12.891 21.3456 13.0363 21.0861 13.135C21.6483 13.3434 22.0646 13.8478 22.3349 14.6483L22.8214 16.0465C23.0052 16.5947 23.2755 17.0005 23.6323 17.2637C23.4701 17.483 23.2268 17.6667 22.9025 17.8147C22.5781 17.9627 22.2213 18.0368 21.8321 18.0368C21.4429 18.0368 21.1402 17.9244 20.9239 17.6996C20.7077 17.4748 20.5077 17.0827 20.3239 16.5235L19.74 14.7964C19.6211 14.4674 19.4616 14.2152 19.2616 14.0397C19.0616 13.8643 18.7616 13.7765 18.3615 13.7765H17.6966V17.8887C17.3506 17.9545 16.9181 17.9874 16.3992 17.9874C15.8802 17.9874 15.4531 17.9545 15.118 17.8887V6.73648L15.2315 6.62134C16.1721 6.59941 16.9641 6.58296 17.6074 6.57199C18.2507 6.56102 18.7562 6.55554 19.1238 6.55554C19.7184 6.55554 20.259 6.62956 20.7455 6.7776C21.2321 6.92564 21.6456 7.1477 21.9862 7.44377C22.3267 7.73985 22.5916 8.11269 22.7808 8.56229C22.9701 9.01188 23.0647 9.53276 23.0647 10.1249ZM17.6966 8.52939V11.7533C18.1831 11.7533 18.5994 11.7451 18.9454 11.7287C19.2913 11.7122 19.5697 11.6464 19.7806 11.5313C19.9914 11.4161 20.1509 11.2544 20.259 11.046C20.3671 10.8377 20.4212 10.5361 20.4212 10.1414C20.4212 9.07768 19.913 8.54584 18.8967 8.54584H18.2237C18.2237 8.54584 18.048 8.54035 17.6966 8.52939ZM27.638 14.5661L27.6218 15.7504V15.7668C28.1192 15.7449 28.5192 15.7339 28.8219 15.7339H32.5844C32.5844 16.1397 32.5682 16.4522 32.5358 16.6715C32.4061 17.5159 31.8547 17.9381 30.8816 17.9381H26.5677C26.1028 17.9381 25.7379 17.801 25.473 17.5268C25.2081 17.2527 25.0757 16.8799 25.0757 16.4083V6.76938L25.1892 6.65423H32.179C32.2439 6.97224 32.2763 7.31767 32.2763 7.6905C32.2763 8.06334 32.2006 8.45263 32.0493 8.85836H27.6218L27.638 10.0427V11.1941C27.9192 11.1831 28.2868 11.1776 28.7409 11.1776H31.2222C31.3195 11.4847 31.3681 11.8356 31.3681 12.2304C31.3681 12.6251 31.3195 12.987 31.2222 13.316H27.638V14.5661ZM34.417 17.8887V6.65423C34.7522 6.58844 35.1847 6.55554 35.7145 6.55554C36.2442 6.55554 36.6821 6.58844 37.0281 6.65423V17.8887C36.6821 17.9545 36.2442 17.9874 35.7145 17.9874C35.1847 17.9874 34.7522 17.9545 34.417 17.8887Z" fill="white"/>
<path d="M15.118 19.1746V19.1226H15.4654V19.1746H15.3206V19.5565H15.2628V19.1746H15.118ZM15.9001 19.3021V19.1226H15.9579V19.5565H15.9001V19.3541H15.6767V19.5565H15.6189V19.1226H15.6767V19.3021H15.9001ZM16.4696 19.5046V19.5565H16.1537V19.1226H16.4654V19.1746H16.2115V19.3075H16.4457V19.3595H16.2115V19.5046H16.4696ZM16.9732 19.1728V19.3232H17.0882C17.14 19.3232 17.1752 19.3039 17.1752 19.2453C17.1752 19.1903 17.1382 19.1728 17.0906 19.1728H16.9732ZM16.9732 19.3734V19.5565H16.9154V19.1226H17.1079C17.1871 19.1226 17.2348 19.1746 17.2348 19.2447C17.2348 19.3051 17.2008 19.3734 17.1079 19.3734H16.9732ZM17.7279 19.5046V19.5565H17.4121V19.1226H17.7238V19.1746H17.4699V19.3075H17.7041V19.3595H17.4699V19.5046H17.7279ZM17.9678 19.3704V19.5565H17.91V19.1226H18.1079C18.1782 19.1226 18.2485 19.1474 18.2485 19.2392C18.2485 19.3033 18.2163 19.3269 18.1889 19.3432C18.2133 19.3535 18.2378 19.3643 18.2401 19.4248L18.2437 19.5033C18.2443 19.5275 18.2473 19.5366 18.2652 19.5469V19.5565H18.1943C18.1859 19.5299 18.1841 19.4641 18.1841 19.4477C18.1841 19.4121 18.177 19.3704 18.1079 19.3704H17.9678ZM17.9678 19.1728V19.3202H18.1019C18.1442 19.3202 18.1889 19.3093 18.1889 19.2453C18.1889 19.1782 18.1406 19.1728 18.112 19.1728H17.9678ZM18.4961 19.3595V19.5565H18.4383V19.1226H18.7345V19.1746H18.4961V19.3075H18.7059V19.3595H18.4961ZM19.2312 19.3396C19.2312 19.2374 19.1752 19.1631 19.0822 19.1631C18.9893 19.1631 18.9333 19.2374 18.9333 19.3396C18.9333 19.4417 18.9893 19.516 19.0822 19.516C19.1752 19.516 19.2312 19.4417 19.2312 19.3396ZM19.2908 19.3396C19.2908 19.4332 19.2419 19.568 19.0822 19.568C18.9225 19.568 18.8737 19.4332 18.8737 19.3396C18.8737 19.2459 18.9225 19.1111 19.0822 19.1111C19.2419 19.1111 19.2908 19.2459 19.2908 19.3396ZM19.5235 19.3704V19.5565H19.4657V19.1226H19.6636C19.7339 19.1226 19.8042 19.1474 19.8042 19.2392C19.8042 19.3033 19.772 19.3269 19.7446 19.3432C19.769 19.3535 19.7935 19.3643 19.7959 19.4248L19.7994 19.5033C19.8 19.5275 19.803 19.5366 19.8209 19.5469V19.5565H19.75C19.7416 19.5299 19.7398 19.4641 19.7398 19.4477C19.7398 19.4121 19.7327 19.3704 19.6636 19.3704H19.5235ZM19.5235 19.1728V19.3202H19.6576C19.6999 19.3202 19.7446 19.3093 19.7446 19.2453C19.7446 19.1782 19.6963 19.1728 19.6677 19.1728H19.5235ZM20.3963 19.5565H20.3403V19.3003C20.3403 19.2876 20.3414 19.2326 20.3414 19.1921H20.3403L20.2199 19.5565H20.1627L20.0423 19.1927H20.0411C20.0411 19.2326 20.0423 19.2876 20.0423 19.3003V19.5565H19.9863V19.1226H20.0691L20.1913 19.4894H20.1925L20.314 19.1226H20.3963V19.5565ZM20.8227 19.4302H20.6511L20.6064 19.5565H20.5468L20.7077 19.1226H20.7732L20.9281 19.5565H20.865L20.8227 19.4302ZM20.6689 19.3782H20.8018L20.7387 19.1873H20.7375L20.6689 19.3782ZM21.3641 19.4731V19.1226H21.4201V19.5565H21.3551L21.1377 19.206H21.1365V19.5565H21.0805V19.1226H21.149L21.3629 19.4731H21.3641ZM21.9663 19.2531H21.9103C21.8942 19.177 21.8316 19.1631 21.7905 19.1631C21.713 19.1631 21.6505 19.2211 21.6505 19.3353C21.6505 19.4375 21.6862 19.516 21.7923 19.516C21.8298 19.516 21.8948 19.4979 21.9144 19.397H21.9705C21.9466 19.5608 21.8155 19.568 21.7833 19.568C21.6862 19.568 21.5909 19.5039 21.5909 19.3371C21.5909 19.2036 21.666 19.1111 21.7905 19.1111C21.9007 19.1111 21.9579 19.1806 21.9663 19.2531ZM22.4612 19.5046V19.5565H22.1454V19.1226H22.457V19.1746H22.2032V19.3075H22.4374V19.3595H22.2032V19.5046H22.4612ZM22.8642 19.1746V19.1226H23.2115V19.1746H23.0667V19.5565H23.0089V19.1746H22.8642ZM23.6463 19.3021V19.1226H23.7041V19.5565H23.6463V19.3541H23.4228V19.5565H23.365V19.1226H23.4228V19.3021H23.6463ZM24.1329 19.4302H23.9613L23.9166 19.5565H23.857L24.0179 19.1226H24.0834L24.2384 19.5565H24.1752L24.1329 19.4302ZM23.9792 19.3782H24.112L24.0489 19.1873H24.0477L23.9792 19.3782ZM24.3537 19.1746V19.1226H24.7011V19.1746H24.5563V19.5565H24.4985V19.1746H24.3537ZM25.5271 19.5565H25.4711V19.3003C25.4711 19.2876 25.4723 19.2326 25.4723 19.1921H25.4711L25.3507 19.5565H25.2935L25.1732 19.1927H25.172C25.172 19.2326 25.1732 19.2876 25.1732 19.3003V19.5565H25.1172V19.1226H25.2L25.3221 19.4894H25.3233L25.4449 19.1226H25.5271V19.5565ZM25.9535 19.4302H25.7819L25.7372 19.5565H25.6776L25.8385 19.1226H25.9041L26.059 19.5565H25.9958L25.9535 19.4302ZM25.7998 19.3782H25.9327L25.8695 19.1873H25.8683L25.7998 19.3782ZM26.1744 19.1746V19.1226H26.5218V19.1746H26.377V19.5565H26.3192V19.1746H26.1744ZM26.6377 19.1746V19.1226H26.9851V19.1746H26.8403V19.5565H26.7825V19.1746H26.6377ZM27.4598 19.5046V19.5565H27.144V19.1226H27.4556V19.1746H27.2018V19.3075H27.436V19.3595H27.2018V19.5046H27.4598ZM27.6997 19.3704V19.5565H27.6419V19.1226H27.8397C27.91 19.1226 27.9804 19.1474 27.9804 19.2392C27.9804 19.3033 27.9482 19.3269 27.9208 19.3432C27.9452 19.3535 27.9696 19.3643 27.972 19.4248L27.9756 19.5033C27.9762 19.5275 27.9792 19.5366 27.997 19.5469V19.5565H27.9261C27.9178 19.5299 27.916 19.4641 27.916 19.4477C27.916 19.4121 27.9088 19.3704 27.8397 19.3704H27.6997ZM27.6997 19.1728V19.3202H27.8338C27.8761 19.3202 27.9208 19.3093 27.9208 19.2453C27.9208 19.1782 27.8725 19.1728 27.8439 19.1728H27.6997ZM28.4765 19.2495H28.4223C28.4193 19.1824 28.3645 19.1613 28.3162 19.1613C28.2798 19.1613 28.2185 19.1716 28.2185 19.2374C28.2185 19.2743 28.2441 19.2864 28.2691 19.2924L28.3913 19.3208C28.4467 19.3341 28.4884 19.368 28.4884 19.4369C28.4884 19.5396 28.3943 19.568 28.321 19.568C28.2417 19.568 28.2107 19.5438 28.1917 19.5263C28.1553 19.4931 28.1482 19.4568 28.1482 19.4163H28.2024C28.2024 19.4949 28.2655 19.5179 28.3204 19.5179C28.3621 19.5179 28.4324 19.507 28.4324 19.4447C28.4324 19.3994 28.4115 19.3849 28.3412 19.368L28.2536 19.3474C28.2256 19.3408 28.1625 19.3208 28.1625 19.2453C28.1625 19.1776 28.206 19.1111 28.3096 19.1111C28.4592 19.1111 28.4741 19.2018 28.4765 19.2495ZM28.8889 19.1746V19.1226H29.2363V19.1746H29.0915V19.5565H29.0337V19.1746H28.8889ZM29.6711 19.3021V19.1226H29.7289V19.5565H29.6711V19.3541H29.4476V19.5565H29.3898V19.1226H29.4476V19.3021H29.6711ZM30.2405 19.5046V19.5565H29.9247V19.1226H30.2363V19.1746H29.9825V19.3075H30.2167V19.3595H29.9825V19.5046H30.2405ZM31.0886 19.5565H31.0326V19.3003C31.0326 19.2876 31.0337 19.2326 31.0337 19.1921H31.0326L30.9122 19.5565H30.855L30.7346 19.1927H30.7334C30.7334 19.2326 30.7346 19.2876 30.7346 19.3003V19.5565H30.6786V19.1226H30.7614L30.8836 19.4894H30.8848L31.0063 19.1226H31.0886V19.5565ZM31.6115 19.3396C31.6115 19.2374 31.5555 19.1631 31.4625 19.1631C31.3696 19.1631 31.3136 19.2374 31.3136 19.3396C31.3136 19.4417 31.3696 19.516 31.4625 19.516C31.5555 19.516 31.6115 19.4417 31.6115 19.3396ZM31.6711 19.3396C31.6711 19.4332 31.6222 19.568 31.4625 19.568C31.3028 19.568 31.254 19.4332 31.254 19.3396C31.254 19.2459 31.3028 19.1111 31.4625 19.1111C31.6222 19.1111 31.6711 19.2459 31.6711 19.3396ZM32.1511 19.2495H32.0969C32.0939 19.1824 32.0391 19.1613 31.9908 19.1613C31.9545 19.1613 31.8931 19.1716 31.8931 19.2374C31.8931 19.2743 31.9187 19.2864 31.9438 19.2924L32.0659 19.3208C32.1213 19.3341 32.1631 19.368 32.1631 19.4369C32.1631 19.5396 32.0689 19.568 31.9956 19.568C31.9164 19.568 31.8854 19.5438 31.8663 19.5263C31.83 19.4931 31.8228 19.4568 31.8228 19.4163H31.877C31.877 19.4949 31.9402 19.5179 31.995 19.5179C32.0367 19.5179 32.107 19.507 32.107 19.4447C32.107 19.3994 32.0862 19.3849 32.0159 19.368L31.9283 19.3474C31.9003 19.3408 31.8371 19.3208 31.8371 19.2453C31.8371 19.1776 31.8806 19.1111 31.9843 19.1111C32.1339 19.1111 32.1488 19.2018 32.1511 19.2495ZM32.2987 19.1746V19.1226H32.6461V19.1746H32.5013V19.5565H32.4435V19.1746H32.2987Z" fill="white"/>
</g>
<defs>
<clipPath id="clip0">
<rect width="39" height="26" fill="white"/>
</clipPath>
</defs>
</svg>
